<?xml version="1.0" standalone="no"?>
<!DOCTYPE svg PUBLIC "-//W3C//DTD SVG 1.1//EN" "http://www.w3.org/Graphics/SVG/1.1/DTD/svg11.dtd" >
<svg xmlns="http://www.w3.org/2000/svg">
<metadata>
Created by FontPrep 20130207 at Thu May 28 17:14:39 2015
 By Jacques Mourier
Copyright (c) 2006 The Hoefler Type Foundry, Inc., dba Hoefler &#38; Frere-Jones. All Rights Reserved.
</metadata>
<defs>
<font id="8384a15771ca8832e562a66dad13f3a3" horiz-adv-x='1024' >
  <font-face 
    font-family="VitesseSans-Medium"
    font-weight="500"
    font-stretch="normal"
    units-per-em="2048"
    panose-1="2 0 6 3 0 0 0 0 0 0"
    ascent="1638"
    descent="-410"
    x-height="1106"
    cap-height="1434"
    bbox="-84 -328 1896 1745"
    underline-thickness="102"
    underline-position="-102"
    unicode-range="U+0020-00F8"
  />
<missing-glyph horiz-adv-x="1024" 
 />
    <glyph glyph-name=".notdef" horiz-adv-x="1024" 
 />
    <glyph glyph-name=".null" horiz-adv-x="0" 
 />
    <glyph glyph-name="nonmarkingreturn" horiz-adv-x="681" 
 />
    <glyph glyph-name="space" unicode=" " horiz-adv-x="460" 
 />
    <glyph glyph-name="exclam" unicode="!" horiz-adv-x="692" 
d="M215 274h262v-274h-262v274zM205 1434h282v-76l-81 -907h-99l-102 907v76z" />
    <glyph glyph-name="quotedbl" unicode="&#x22;" horiz-adv-x="1030" 
d="M602 1434h283v-41l-82 -519h-119l-82 519v41zM164 1434h282v-41l-81 -519h-119l-82 519v41z" />
    <glyph glyph-name="numbersign" unicode="#" horiz-adv-x="1519" 
d="M618 922l-90 -377h371l90 377h-371zM211 1100h256l82 334h203l-82 -334h354l82 334h203l-82 -334h215v-187h-260l-86 -360h213v-186h-258l-88 -367h-203l88 367h-354l-88 -367h-203l88 367h-213v186h258l86 360h-211v187z" />
    <glyph glyph-name="dollar" unicode="$" horiz-adv-x="1331" 
d="M586 1237h-99q-67 0 -91 -25t-24 -168t27 -170q16 -16 93 -26l94 -10v399zM756 197h110q68 1 92 25t25 174q-1 150 -23 172t-96 32l-108 10v-413zM764 -184h-186v184h-129q-174 0 -238 63q-45 45 -59 120t-19 268h223q4 -205 28 -230t99 -24h103v430l-158 14
q-156 16 -209 70q-39 39 -55 104q-12 68 -12 208t17 218t67 127q66 66 227 66h115v163h186v-163h100q170 0 232 -62q47 -45 62 -119t22 -260h-224q-2 195 -26 219t-90 25h-84v-414l172 -16q152 -15 200 -63t60 -113q16 -63 16 -211t-17 -228q-17 -78 -67 -126
q-66 -66 -221 -66h-135v-184z" />
    <glyph glyph-name="percent" unicode="%" horiz-adv-x="1695" 
d="M1587 362q0 -143 -17 -208q-17 -66 -60 -110t-150 -44h-125q-105 0 -149 43t-61 112t-17 207t17 208q17 69 60 112t150 43h125q106 0 150 -43t60 -110q17 -67 17 -210zM1413 362q0 172 -18 190t-62 19h-71q-44 0 -62 -18q-18 -19 -18 -191t18 -190t62 -18h71q43 0 61 18
t19 190zM442 -6h-178l529 764l460 682h179l-529 -764zM688 1071q0 -139 -17 -208t-61 -111t-149 -43h-125q-106 0 -150 43q-44 44 -60 110q-17 66 -17 209t17 210t60 109t150 44h125q106 0 149 -44t62 -108q16 -72 16 -211zM514 1071q0 173 -18 191t-62 18h-72
q-43 0 -61 -18t-18 -190t18 -191q18 -18 61 -19h72q44 0 62 18t18 191z" />
    <glyph glyph-name="ampersand" unicode="&#x26;" horiz-adv-x="1503" 
d="M344 412q0 -166 30 -196t128 -30h106q61 0 89 16t61 60l47 68l-299 329l-57 -14q-55 -15 -80 -41t-25 -192zM805 1243h-98q-75 0 -95 -19q-20 -20 -20 -154t18 -179t92 -125l207 -234h19l159 287h273v-198h-148l-157 -246l162 -176h165v-199h-288l-150 168h-18l-19 -29
q-53 -81 -103 -111t-140 -30h-218q-170 0 -239 70q-45 46 -63 122t-19 232q0 156 11 216t59 108t184 73l24 4q-37 80 -37 218t15 221q18 70 57 108q63 63 240 64h178q140 0 188 -48t63 -120q15 -70 15 -242h-217q-4 185 -21 202t-79 17z" />
    <glyph glyph-name="quotesingle" unicode="'" horiz-adv-x="591" 
d="M164 1434h282v-41l-81 -519h-119l-82 519v41z" />
    <glyph glyph-name="parenleft" unicode="(" horiz-adv-x="827" 
d="M199 562q0 352 15 440t77 182q55 90 201 270h157q-173 -316 -195 -418t-22 -473t22 -473t195 -418h-157q-146 180 -204 272t-74 180q-16 87 -15 438z" />
    <glyph glyph-name="parenright" unicode=")" horiz-adv-x="827" 
d="M629 563q1 -350 -15 -438t-74 -180t-204 -273h-158q172 315 193 404q25 118 25 488t-25 487q-20 88 -193 403h158q146 -180 204 -272t74 -180t15 -439z" />
    <glyph glyph-name="asterisk" unicode="*" horiz-adv-x="1060" 
d="M784 1362l-163 -203l-72 41l94 244zM897 1167v-163l-258 40v82zM784 809l-141 -82l-94 244l72 41zM276 1362l142 82l94 -244l-72 -41zM164 1167l258 -41v-82l-258 -40v163zM276 809l164 203l72 -41l-94 -244z" />
    <glyph glyph-name="plus" unicode="+" horiz-adv-x="1040" 
d="M616 1149v-309h310v-193h-310v-309h-192v309h-309v193h309v309h192z" />
    <glyph glyph-name="comma" unicode="," horiz-adv-x="557" 
d="M147 274h263v-262q0 -76 -60 -139l-178 -180l-74 61l133 180q16 23 17 52v14h-101v274z" />
    <glyph glyph-name="hyphen" unicode="-" horiz-adv-x="839" 
d="M713 543h-586v219h586v-219z" />
    <glyph glyph-name="period" unicode="." horiz-adv-x="557" 
d="M147 274h263v-274h-263v274z" />
    <glyph glyph-name="slash" unicode="/" horiz-adv-x="1030" 
d="M133 -328h-217l836 1782h217z" />
    <glyph glyph-name="zero" unicode="0" horiz-adv-x="1398" 
d="M563 1434h273q123 0 181 -16q59 -16 115 -65q56 -51 93 -193t37 -443t-37 -443t-93 -193q-56 -49 -115 -65q-58 -16 -181 -16h-273q-127 0 -182 14t-113 66q-132 118 -131 637q-1 519 131 637q58 52 113 66t182 14zM831 1237h-264q-88 0 -123 -29q-63 -57 -63 -491
t63 -492q35 -29 123 -28h264q88 0 123 28q64 57 64 491t-64 492q-35 29 -123 29z" />
    <glyph glyph-name="one" unicode="1" horiz-adv-x="778" 
d="M573 0h-229v1202l-242 -82l-65 187l348 129h188v-1436z" />
    <glyph glyph-name="two" unicode="2" horiz-adv-x="1300" 
d="M139 0v158q0 168 21 256q28 88 88 148t211 120l356 139q84 35 109 82q24 47 24 155t-33 140q-33 33 -139 33h-217q-96 0 -124 -34t-34 -204h-235q4 273 98 369q72 72 262 72h316q178 0 245 -68q97 -96 97 -298t-72 -302q-53 -76 -233 -145l-361 -142q-84 -35 -110 -63
t-34 -69q-9 -40 -9 -124v-20h827v-203h-1053z" />
    <glyph glyph-name="three" unicode="3" horiz-adv-x="1353" 
d="M809 647h-305v191h291q91 0 125 34t34 166q0 131 -41 172q-27 27 -116 27h-265q-90 0 -118 -29t-39 -207h-236q0 258 105 363q70 70 250 70h366q176 0 244 -68q96 -96 96 -307q0 -133 -53 -215q-55 -76 -139 -99v-4q205 -37 204 -327q0 -250 -96 -346q-68 -68 -244 -68
h-391q-182 0 -252 70q-102 102 -102 393h235q10 -211 38 -239t120 -27h285q92 1 127 35t35 191t-41 198q-27 26 -117 26z" />
    <glyph glyph-name="four" unicode="4" horiz-adv-x="1347" 
d="M803 1245h-35l-422 -696h457v696zM1026 0h-223v362h-711v74q0 88 51 170l439 711q38 65 76 91t98 26h270v-885h242v-187h-242v-362z" />
    <glyph glyph-name="five" unicode="5" horiz-adv-x="1361" 
d="M1169 1434v-205h-733l-30 -404h18q68 59 121 76q55 12 172 12h129q190 0 268 -77q104 -104 104 -376t-104 -376q-84 -84 -268 -84h-336q-197 0 -266 70q-51 51 -76 129q-20 82 -23 231h236q2 -170 43 -205q29 -29 119 -28h268q86 0 119 30q45 39 45 231t-40 225
q-40 34 -124 34h-158q-77 -1 -141 -17t-156 -67l-180 61l49 740h944z" />
    <glyph glyph-name="six" unicode="6" horiz-adv-x="1353" 
d="M811 649h-254q-80 0 -178 -47q10 -324 67 -373q33 -33 127 -32h238q96 1 133 37t37 189t-37 189t-133 37zM870 846q195 0 265 -70q51 -47 69 -125t19 -221q0 -250 -101 -348q-82 -82 -260 -82h-299q-113 0 -176 15q-157 37 -215 261q-35 144 -35 438t37 438
q58 228 215 266q61 15 193 16h268q174 0 240 -68q47 -47 67 -117t25 -219h-238q-10 150 -38 178t-111 29h-213q-103 0 -138 -33q-66 -59 -65 -469q82 66 130 88t118 23h243z" />
    <glyph glyph-name="seven" unicode="7" horiz-adv-x="1206" 
d="M102 1229v205h1008v-150l-618 -1284h-250l598 1229h-738z" />
    <glyph glyph-name="eight" unicode="8" horiz-adv-x="1359" 
d="M555 197h250q96 1 133 37t37 190t-37 190t-133 37h-250q-96 0 -133 -37t-37 -190t37 -190t133 -37zM498 1434h364q170 0 244 -78q96 -90 96 -303q0 -279 -188 -308v-4q205 -33 205 -331q0 -229 -101 -328q-82 -82 -260 -82h-356q-178 0 -260 82q-100 98 -101 328
q0 299 205 331v4q-188 29 -188 308q0 213 96 303q74 78 244 78zM551 838h258q84 0 117 32q32 32 32 167q0 134 -32 167t-117 33h-258q-84 0 -117 -33t-33 -167q0 -135 33 -167t117 -32z" />
    <glyph glyph-name="nine" unicode="9" horiz-adv-x="1359" 
d="M549 754h254q78 0 176 47q-10 346 -66 403q-33 33 -127 33h-237q-96 0 -133 -37t-37 -205q0 -169 37 -205t133 -36zM487 557q-190 0 -260 70q-49 47 -69 132t-21 230q0 264 101 363q82 82 260 82h299q113 0 176 -16q156 -38 215 -261q35 -143 35 -437t-37 -438
q-58 -226 -215 -266q-61 -16 -193 -16h-301q-174 0 -239 68q-48 45 -68 112t-25 209h228q10 -137 38 -165t111 -27h256q102 -1 137 32q17 18 29 46t24 125t13 266q-86 -66 -132 -87t-116 -22h-246z" />
    <glyph glyph-name="colon" unicode=":" horiz-adv-x="565" 
d="M152 1106h262v-275h-262v275zM152 274h262v-274h-262v274z" />
    <glyph glyph-name="semicolon" unicode=";" horiz-adv-x="563" 
d="M152 274h262v-262q0 -76 -60 -139l-178 -180l-74 61l134 180q16 23 16 52v14h-100v274zM152 1106h268v-275h-268v275z" />
    <glyph glyph-name="less" unicode="&#x3c;" horiz-adv-x="1040" 
d="M891 1012l-561 -267l561 -266v-219l-770 387v193l770 387v-215z" />
    <glyph glyph-name="equal" unicode="=" horiz-adv-x="1040" 
d="M135 428v209h770v-209h-770zM135 850v209h770v-209h-770z" />
    <glyph glyph-name="greater" unicode="&#x3e;" horiz-adv-x="1040" 
d="M150 260v215l559 266l-559 267v219l770 -387v-193z" />
    <glyph glyph-name="question" unicode="?" horiz-adv-x="1118" 
d="M709 1434q166 0 233 -68q41 -44 57 -110q17 -66 17 -201t-17 -187q-12 -57 -58 -103q-46 -47 -170 -101t-153 -82t-38 -131h-170v59q0 92 9 139t46 84t149 84t143 79t31 163t-21 152t-93 22h-250q-72 0 -94 -23t-25 -231h-225q4 199 18 266q12 80 58 125q63 63 229 64
h324zM367 272h256v-272h-256v272z" />
    <glyph glyph-name="at" unicode="@" horiz-adv-x="1933" 
d="M991 283q70 0 152 41v491q-82 45 -144 45h-114q-63 0 -91 -28t-28 -260q0 -234 33 -267q23 -23 86 -22h106zM1464 203q94 0 130 36t48 121q16 82 17 299q0 506 -119 625q-45 44 -106 62t-185 18h-544q-137 0 -197 -20t-116 -75q-56 -56 -87 -212t-31 -497q0 -340 32 -494
t87 -209t117 -75t195 -20h845v-69h-852q-154 0 -225 28q-71 23 -135 87t-102 228q-38 165 -37 527q0 361 38 527t101 229t135 86q72 29 225 29h559q145 0 221 -27t128 -80q129 -129 129 -668q0 -383 -88 -471q-61 -61 -162 -61h-80q-131 0 -244 113q-57 -51 -117 -93
q-47 -20 -94 -20h-80q-139 0 -196 57q-86 86 -86 387t86 387q57 57 196 58h80q47 0 94 -21q59 -41 117 -92l39 113h129l-12 -225v-488q0 -47 26 -74q27 -26 121 -26z" />
    <glyph glyph-name="A" unicode="A" horiz-adv-x="1347" 
d="M649 1239l-198 -643h426l-197 643h-31zM575 1440h199q39 0 53 -9t29 -47l455 -1384h-248l-125 403h-547l-125 -403h-227l455 1384q10 36 25 46t56 10z" />
    <glyph glyph-name="B" unicode="B" horiz-adv-x="1361" 
d="M1014 420q0 174 -37 211q-16 16 -96 16h-484v-450h484q84 0 100 16q33 33 33 207zM397 840h471q78 0 99 16q33 28 33 182t-31 183q-16 16 -101 16h-471v-397zM168 0v1434h747q160 0 226 -60q49 -42 68 -112t19 -218t-49 -209q-50 -62 -161 -90v-4q127 -23 176 -91
t49 -230q-1 -162 -23 -236t-71 -121q-63 -63 -229 -63h-752z" />
    <glyph glyph-name="C" unicode="C" horiz-adv-x="1359" 
d="M897 0h-397q-102 0 -150 12q-135 33 -182 238q-31 131 -31 467t31 467q49 205 184 237q45 12 148 13h397q102 0 150 -12t83 -46q66 -55 92 -140t29 -273h-229q-10 217 -47 251q-29 23 -103 23h-348q-74 0 -102 -23q-51 -46 -51 -498t51 -497q29 -23 102 -22h348
q74 -2 103 22q41 37 47 275h231q-10 -207 -32 -293q-29 -88 -91 -144q-35 -33 -83 -45t-150 -12z" />
    <glyph glyph-name="D" unicode="D" horiz-adv-x="1396" 
d="M791 197q129 0 173 42q44 43 62 143t18 334t-18 336q-18 101 -57 135t-71 42t-107 8h-394v-1040h394zM168 1434h623q129 0 208 -25q78 -20 140 -76q139 -127 139 -616t-139 -617q-61 -55 -140 -75q-80 -25 -208 -25h-623v1434z" />
    <glyph glyph-name="E" unicode="E" horiz-adv-x="1247" 
d="M1147 197v-197h-979v1434h979v-197h-750v-395h621v-197h-621v-448h750z" />
    <glyph glyph-name="F" unicode="F" horiz-adv-x="1161" 
d="M1092 1237h-695v-430h553v-197h-553v-610h-229v1434h924v-197z" />
    <glyph glyph-name="G" unicode="G" horiz-adv-x="1388" 
d="M500 1434h403q99 0 149 -12t85 -46q61 -53 88 -131q23 -80 24 -262h-223q-2 193 -45 231q-29 23 -102 23h-355q-74 0 -102 -23q-51 -46 -51 -498t51 -497q29 -23 102 -22h355q74 -2 102 22q49 47 49 264v72h-334v197h566v-183q0 -225 -31 -340q-50 -186 -178 -217
q-49 -12 -150 -12h-403q-102 0 -150 12q-135 33 -182 238q-31 131 -31 467t31 467q49 205 184 237q46 13 148 13z" />
    <glyph glyph-name="H" unicode="H" horiz-adv-x="1478" 
d="M1311 1434v-1434h-230v645h-684v-645h-229v1434h229v-592h684v592h230z" />
    <glyph glyph-name="I" unicode="I" horiz-adv-x="589" 
d="M410 0h-230v1434h230v-1434z" />
    <glyph glyph-name="J" unicode="J" horiz-adv-x="1181" 
d="M522 197q180 -1 210 29t41 99t11 246v863h230v-842q0 -252 -22 -352q-41 -191 -210 -228q-86 -16 -229 -16h-145q-186 0 -256 70q-47 47 -70 131q-16 82 -21 278h222q11 -221 39 -250t102 -28h98z" />
    <glyph glyph-name="K" unicode="K" horiz-adv-x="1284" 
d="M397 645v-645h-229v1434h229v-592h123l471 592h266l-552 -676l565 -758h-273l-473 645h-127z" />
    <glyph glyph-name="L" unicode="L" horiz-adv-x="1150" 
d="M397 1434v-1237h695v-197h-924v1434h229z" />
    <glyph glyph-name="M" unicode="M" horiz-adv-x="1828" 
d="M1661 1434v-1434h-234v1219h-30l-334 -1156q-12 -43 -27 -51q-12 -12 -53 -12h-147q-42 0 -56 10t-24 53l-334 1176h-31v-1239h-223v1434h356q45 0 62 -17q18 -12 28 -55l291 -1063h31l289 1063q10 43 28 55q16 16 60 17h348z" />
    <glyph glyph-name="N" unicode="N" horiz-adv-x="1476" 
d="M1309 1434v-1434h-234q-43 0 -67 12q-23 18 -39 56l-547 1054h-31v-1122h-223v1434h254q45 0 65 -14t39 -54l529 -1006h30v1074h224z" />
    <glyph glyph-name="O" unicode="O" horiz-adv-x="1409" 
d="M371 717q0 -453 51 -498q29 -23 102 -22h361q74 -2 102 22q51 45 51 498t-51 497q-29 23 -102 23h-361q-74 0 -102 -23q-51 -44 -51 -497zM500 1434h409q103 0 151 -12q135 -35 181 -238q31 -131 31 -467t-31 -467q-49 -206 -184 -238q-45 -12 -148 -12h-409
q-102 0 -150 12q-135 33 -182 238q-31 131 -31 467t31 467q49 205 184 237q46 13 148 13z" />
    <glyph glyph-name="P" unicode="P" horiz-adv-x="1290" 
d="M1221 982q0 -294 -117 -400q-59 -53 -221 -54h-486v-528h-229v1434h715q162 0 221 -54q117 -104 117 -398zM397 725h428q88 0 111 18q51 39 51 238t-51 238q-23 18 -111 18h-428v-512z" />
    <glyph glyph-name="Q" unicode="Q" horiz-adv-x="1409" 
d="M371 717q0 -453 51 -498q29 -23 102 -22h164l-84 288h219l86 -288q55 4 78 22q51 45 51 498t-51 497q-29 23 -102 23h-361q-74 0 -102 -23q-51 -44 -51 -497zM500 0q-102 0 -150 12q-135 33 -182 238q-31 131 -31 467t31 467q49 205 184 237q45 12 148 13h409
q103 0 151 -12q135 -35 181 -238q31 -131 31 -467t-31 -467q-31 -132 -93 -188t-181 -62l65 -221h-219l-65 221h-248z" />
    <glyph glyph-name="R" unicode="R" horiz-adv-x="1378" 
d="M795 592h-398v-592h-229v1434h772q146 0 200 -54t76 -132t21 -240q0 -162 -53 -236t-180 -92v-4q119 -20 167 -74q45 -55 52 -201q12 -289 22 -401h-229q-21 127 -27 395q-2 131 -41 164t-153 33zM397 780h475q68 0 89 21q45 45 45 211t-43 209q-16 16 -91 16h-475v-457z
" />
    <glyph glyph-name="S" unicode="S" horiz-adv-x="1337" 
d="M1217 420q1 -150 -17 -228t-67 -126q-66 -66 -222 -66h-481q-164 0 -216 52t-70 130t-19 269h227q2 -207 26 -231t91 -23h403q72 1 95 23t23 176t-23 175q-22 22 -97 29l-450 41q-150 14 -209 74q-39 39 -55 104q-12 66 -12 205t16 217q18 78 67 127q66 66 217 66h443
q164 0 223 -60q41 -41 61 -117q14 -86 21 -264h-227q-2 197 -26 221t-91 23h-363q-71 0 -93 -23t-22 -170q0 -146 20 -166q19 -20 99 -30l451 -41q144 -11 196 -63t64 -117q17 -57 17 -207z" />
    <glyph glyph-name="T" unicode="T" horiz-adv-x="1228" 
d="M1180 1237h-451v-1237h-229v1237h-451v197h1131v-197z" />
    <glyph glyph-name="U" unicode="U" horiz-adv-x="1452" 
d="M1284 1434v-838q0 -252 -21 -350q-40 -187 -214 -228q-80 -18 -224 -18h-209q-260 0 -344 84q-59 59 -84 158q-20 102 -20 354v838h229v-887q0 -131 9 -191q6 -70 16 -88t24 -32q33 -33 220 -33h129q182 0 215 33q16 16 24 35q21 50 21 276v887h229z" />
    <glyph glyph-name="V" unicode="V" horiz-adv-x="1310" 
d="M754 -6h-199q-39 0 -55 10t-27 45l-436 1385h248l362 -1213h31l362 1213h232l-436 -1385q-8 -33 -25 -45q-20 -10 -57 -10z" />
    <glyph glyph-name="W" unicode="W" horiz-adv-x="1939" 
d="M1491 -6h-166q-47 0 -59 10q-12 4 -23 43l-258 1079h-27l-258 -1079q-10 -35 -24 -44t-58 -9h-167q-45 0 -61 8t-21 41l-306 1391h244l219 -1143h27l258 1079q10 43 27 55q18 12 63 13h150q45 0 62 -12t28 -56l256 -1079h26l222 1143h231l-303 -1391q-6 -33 -21 -39
q-16 -10 -61 -10z" />
    <glyph glyph-name="X" unicode="X" horiz-adv-x="1316" 
d="M1036 0l-372 543h-19l-366 -543h-244l493 733l-477 701h266l345 -514h18l342 514h254l-477 -705l493 -729h-256z" />
    <glyph glyph-name="Y" unicode="Y" horiz-adv-x="1243" 
d="M739 0h-229v567l-504 867h252l360 -637h17l354 637h248l-498 -861v-573z" />
    <glyph glyph-name="Z" unicode="Z" horiz-adv-x="1280" 
d="M1184 197v-197h-1086v150l807 1087h-766v197h1055v-150l-807 -1087h797z" />
    <glyph glyph-name="bracketleft" unicode="[" horiz-adv-x="937" 
d="M211 1434h590v-181h-383v-1380h383v-180h-590v1741z" />
    <glyph glyph-name="backslash" unicode="\" horiz-adv-x="1024" 
d="M897 -328l-836 1782h211l836 -1782h-211z" />
    <glyph glyph-name="bracketright" unicode="]" horiz-adv-x="937" 
d="M727 1434v-1741h-590v180h383v1380h-383v181h590z" />
    <glyph glyph-name="asciicircum" unicode="^" horiz-adv-x="1085" 
d="M911 979h-161l-209 307l-209 -307h-158v10l307 451h123l307 -451v-10z" />
    <glyph glyph-name="underscore" unicode="_" horiz-adv-x="1024" 
d="M-4 -307v174h1032v-174h-1032z" />
    <glyph glyph-name="grave" unicode="`" horiz-adv-x="1024" 
d="M743 1245h-206l-308 219v11h340l174 -220v-10z" />
    <glyph glyph-name="a" unicode="a" horiz-adv-x="1175" 
d="M582 180q106 0 233 68v229h-287q-156 1 -184 -27t-27 -130t19 -121q18 -18 88 -19h158zM748 1106q156 0 215 -59q39 -39 51 -99t12 -203v-745h-211v135q-100 -85 -148 -111t-122 -26h-172q-141 0 -203 62t-62 246t68 251q43 43 114 61t249 18t276 -30v123q0 154 -21 175
t-100 22h-217q-70 0 -88 -18t-24 -138h-213q2 121 16 184q18 59 49 90q61 61 184 62h347z" />
    <glyph glyph-name="b" unicode="b" 
d="M575 918q-84 0 -206 -62v-602q127 -66 215 -66h159q85 0 109 24t34 86t9 255q0 193 -9 255t-33 86t-110 24h-168zM156 0v1475h213v-502q106 87 157 111t119 24h150q158 0 225 -68q47 -47 70 -147q18 -96 18 -341t-20 -342t-68 -144q-68 -68 -225 -68h-150q-68 0 -118 24
t-158 109v-131h-213z" />
    <glyph glyph-name="c" unicode="c" horiz-adv-x="1136" 
d="M825 403h207q0 -159 -15 -231t-65 -122t-176 -50h-338q-156 0 -215 59t-77 155t-19 339q0 242 18 338q17 96 77 155t216 60h336q125 0 174 -49q48 -49 64 -120t16 -220h-207q-2 158 -22 178t-78 20h-256q-74 0 -92 -18q-17 -19 -25 -79t-8 -265t7 -265t25 -78t93 -20h258
q61 0 81 20t21 193z" />
    <glyph glyph-name="d" unicode="d" 
d="M651 188q90 0 215 66v602q-121 61 -207 62h-167q-86 0 -110 -24t-32 -86q-10 -62 -10 -255t9 -255t33 -86t110 -24h159zM1079 0h-213v133q-111 -88 -157 -108q-47 -27 -119 -27h-150q-158 0 -225 68q-49 49 -69 143t-19 344q0 250 19 344t69 143q68 68 225 68h150
q70 0 120 -24t156 -111v502h213v-1475z" />
    <glyph glyph-name="e" unicode="e" horiz-adv-x="1173" 
d="M842 653q0 215 -31 246q-20 20 -94 21h-254q-73 0 -98 -24t-27 -243h504zM1028 483h-690q2 -250 31 -276q20 -20 94 -21h287q53 0 73 20t23 138h207q-5 -131 -19 -189q-14 -59 -63 -107t-174 -48h-359q-156 0 -215 59t-77 155t-19 339q0 242 18 338q17 96 77 155t216 60
h303q159 0 217 -58t76 -154q18 -95 19 -331v-55q0 -25 -25 -25z" />
    <glyph glyph-name="f" unicode="f" horiz-adv-x="755" 
d="M463 0h-215v920h-182v186h182v57q0 187 61 249t185 63h196v-183h-149q-47 0 -63 -16t-17 -111v-59h248v-186h-246v-920z" />
    <glyph glyph-name="g" unicode="g" 
d="M659 309q90 0 207 62v483q-127 66 -215 66h-157q-86 0 -111 -25t-33 -73t-8 -208t8 -208t33 -72q25 -25 111 -25h165zM795 -307h-396q-123 0 -181 58t-58 216h213q4 -63 21 -81t85 -17h269q78 1 98 21t20 135v229q-110 -88 -158 -111t-118 -22h-148q-158 0 -225 67
q-49 49 -70 131q-18 82 -18 295t19 296t69 130q68 68 225 68h148q70 0 120 -24t156 -111v133h213v-1053q0 -145 -15 -203t-54 -98q-59 -59 -215 -59z" />
    <glyph glyph-name="h" unicode="h" horiz-adv-x="1224" 
d="M369 0h-213v1475h213v-502q106 87 157 111t119 24h174q127 0 191 -64q31 -31 51 -88q14 -61 14 -161v-795h-213v780q0 78 -30 108t-113 30h-144q-84 0 -206 -62v-856z" />
    <glyph glyph-name="i" unicode="i" horiz-adv-x="524" 
d="M369 1106v-1106h-213v1106h213zM383 1495v-229h-242v229h242z" />
    <glyph glyph-name="j" unicode="j" horiz-adv-x="552" 
d="M412 1495v-229h-242v229h242zM184 1106h213v-1086q0 -123 -16 -172q-33 -159 -264 -159q-47 0 -123 10v174h98q53 -1 73 19t19 85v1129z" />
    <glyph glyph-name="k" unicode="k" horiz-adv-x="1093" 
d="M369 0h-213v1475h213v-824h80l366 455h252l-453 -531l469 -575h-266l-375 473h-73v-473z" />
    <glyph glyph-name="l" unicode="l" horiz-adv-x="524" 
d="M369 0h-213v1475h213v-1475z" />
    <glyph glyph-name="m" unicode="m" horiz-adv-x="1849" 
d="M778 1108q191 0 240 -147q104 87 162 117t131 30h133q127 0 190 -64q37 -37 49 -88q16 -47 17 -161v-795h-213v780q0 78 -30 108t-114 30h-102q-86 0 -209 -62q2 -12 2 -61v-795h-213v780q1 78 -29 108t-114 30h-103q-84 0 -206 -62v-856h-213v1106h213v-133
q106 87 157 111t119 24h133z" />
    <glyph glyph-name="n" unicode="n" horiz-adv-x="1224" 
d="M369 0h-213v1106h213v-133q106 87 157 111t119 24h174q127 0 191 -64q31 -31 51 -88q14 -61 14 -161v-795h-213v780q0 78 -30 108t-113 30h-144q-84 0 -206 -62v-856z" />
    <glyph glyph-name="o" unicode="o" horiz-adv-x="1202" 
d="M340 553q0 -205 7 -265t25 -78t93 -20h272q74 0 92 18q17 18 25 82t8 262t-7 264t-25 82q-18 17 -93 17h-272q-74 0 -92 -18q-17 -19 -25 -79t-8 -265zM438 0q-156 0 -215 59t-77 155t-19 339q0 242 18 338q17 96 77 155t216 60h326q156 0 215 -60t77 -155
q18 -96 19 -338q0 -242 -18 -338q-17 -95 -77 -155t-216 -60h-326z" />
    <glyph glyph-name="p" unicode="p" 
d="M575 918q-84 0 -206 -62v-602q127 -66 215 -66h159q85 0 109 24t34 86t9 255q0 193 -9 255t-33 86t-110 24h-168zM156 1106h213v-133q106 87 157 111t119 24h150q158 0 225 -68q47 -47 70 -147q18 -96 18 -341t-20 -342t-68 -144q-68 -68 -225 -68h-150q-68 0 -118 24
t-158 109v-438h-213v1413z" />
    <glyph glyph-name="q" unicode="q" 
d="M651 188q90 0 215 66v602q-121 61 -207 62h-167q-86 0 -110 -24t-32 -86q-10 -62 -10 -255t9 -255t33 -86t110 -24h159zM1079 1106v-1413h-213v440q-111 -88 -157 -108q-47 -27 -119 -27h-150q-158 0 -225 68q-49 49 -69 143t-19 344q0 250 19 344t69 143q68 68 225 68
h150q70 0 120 -24t156 -111v133h213z" />
    <glyph glyph-name="r" unicode="r" horiz-adv-x="817" 
d="M369 0h-213v1106h213v-162q86 90 139 129q57 35 117 35h131v-219h-156q-121 0 -231 -41v-848z" />
    <glyph glyph-name="s" unicode="s" horiz-adv-x="1126" 
d="M1014 322q0 -207 -66 -273q-49 -49 -166 -49h-426q-129 0 -171 42t-54 95t-16 211h196q3 -137 19 -153t71 -17h324q55 0 73 18t17 111q0 95 -20 115t-70 22l-375 39q-125 17 -161 53t-48 90t-12 167q0 195 68 262q51 51 165 51h404q119 0 159 -40t54 -95t18 -205h-196
q-3 127 -21 144t-69 18h-293q-52 0 -70 -18t-18 -107t15 -105t77 -26l381 -39q115 -8 163 -56t48 -255z" />
    <glyph glyph-name="t" unicode="t" horiz-adv-x="792" 
d="M711 188v-143l-125 -37q-66 -16 -160 -16t-144 49q-48 49 -49 174v705h-192v186h192v274h216v-274h264v-186h-264v-646q0 -61 12 -73t82 -13h168z" />
    <glyph glyph-name="u" unicode="u" horiz-adv-x="1224" 
d="M856 1106h213v-1106h-213v133q-104 -83 -156 -109t-120 -26h-174q-127 0 -191 63q-31 31 -51 89q-14 61 -14 161v795h212v-780q0 -78 30 -108t114 -30h143q88 0 207 62v856z" />
    <glyph glyph-name="v" unicode="v" horiz-adv-x="1073" 
d="M604 -4h-135q-33 0 -48 9t-28 44l-364 1057h233l270 -864h25l266 864h221l-364 -1057q-12 -35 -29 -43q-14 -10 -47 -10z" />
    <glyph glyph-name="w" unicode="w" horiz-adv-x="1564" 
d="M717 1110h143q61 0 76 -57l199 -811h20l152 864h206l-225 -1055q-8 -33 -24 -44t-50 -11h-159q-59 0 -74 57l-190 789h-17l-190 -789q-14 -57 -74 -57h-160q-33 0 -49 11t-25 44l-225 1055h221l156 -864h21l192 811q7 33 23 45t53 12z" />
    <glyph glyph-name="x" unicode="x" horiz-adv-x="1079" 
d="M252 0h-232l383 565l-380 541h249l269 -391h18l264 391h234l-383 -553l385 -553h-250l-272 399h-19z" />
    <glyph glyph-name="y" unicode="y" horiz-adv-x="1122" 
d="M197 -119h200q29 0 45 37l31 82l-436 1106h244l290 -805h15l258 805h229l-452 -1280q-27 -74 -73 -106t-131 -32t-220 15v178z" />
    <glyph glyph-name="z" unicode="z" horiz-adv-x="1028" 
d="M944 190v-190h-868v127l594 788h-561v191h847v-115l-604 -801h592z" />
    <glyph glyph-name="braceleft" unicode="{" horiz-adv-x="942" 
d="M373 746q-1 38 -19 156t-18 182t54 138q54 75 231 232h157q-133 -166 -178 -239t-45 -117t18 -160q18 -115 19 -156q0 -96 -45 -141t-185 -76v-4q139 -31 183 -80q47 -47 47 -147q0 -35 -18 -154q-18 -120 -19 -158q0 -38 45 -111t178 -239h-157q-176 158 -232 232
q-53 76 -53 135t18 180t18 161t-20 60q-39 40 -225 58v131q180 14 221 55q25 25 25 62z" />
    <glyph glyph-name="bar" unicode="|" horiz-adv-x="714" 
d="M455 -328h-195v1925h195v-1925z" />
    <glyph glyph-name="braceright" unicode="}" horiz-adv-x="942" 
d="M606 38q0 -60 -54 -134t-230 -232h-158q133 166 178 239t45 112t-18 157t-19 154q0 100 47 147q43 49 183 80v4q-139 31 -185 76q-45 45 -45 141q0 41 19 156q18 115 18 160q0 46 -45 118t-178 238h158q176 -158 231 -231q53 -75 53 -139t-18 -183t-18 -155t24 -62
q41 -41 221 -55v-131q-186 -18 -225 -58q-20 -20 -20 -60t18 -161t18 -181z" />
    <glyph glyph-name="asciitilde" unicode="~" horiz-adv-x="901" 
d="M621 522q-57 0 -168 41l-144 53l-57 -94h-109v129q0 74 28 102t79 27h31q57 0 168 -41l143 -53l57 94h109v-129q0 -73 -28 -101t-79 -28h-30z" />
    <glyph glyph-name="Aring" unicode="&#xc5;" horiz-adv-x="1347" 
d="M739 1630h-127q-41 0 -55 -14t-14 -76t14 -76t55 -14h127q41 0 55 14t15 76q-1 62 -15 76t-55 14zM649 1239l-198 -643h426l-197 643h-31zM592 1745h168q96 0 143 -47q47 -48 47 -172t-84 -172l445 -1354h-248l-125 403h-547l-125 -403h-227l444 1356q-81 45 -81 170
q-2 125 46 172t144 47z" />
    <glyph glyph-name="AE" unicode="&#xc6;" horiz-adv-x="1996" 
d="M918 637v612h-21l-326 -612h347zM918 0v444h-447l-238 -444h-233l743 1374q23 37 39 48t56 12h1058v-197h-749v-395h620v-197h-620v-448h749v-197h-978z" />
    <glyph glyph-name="Oslash" unicode="&#xd8;" horiz-adv-x="1409" 
d="M1038 660q0 396 -26 501l-453 -964h326q74 -2 102 22q51 45 51 441zM371 772q0 -398 26 -502l453 967h-326q-74 0 -102 -23q-51 -44 -51 -442zM500 1434h442l51 108h211l-74 -156l5 -2l8 -8q69 -61 99 -192t30 -467t-31 -467q-49 -206 -184 -238q-45 -12 -148 -12h-442
l-51 -109h-211l74 154l-13 12q-68 61 -98 193t-31 467q0 336 31 467q49 205 184 237q46 13 148 13z" />
    <glyph glyph-name="aring" unicode="&#xe5;" horiz-adv-x="1175" 
d="M666 1544h-127q-41 0 -55 -14t-15 -76q0 -62 14 -76t56 -14h127q41 0 55 14t14 76t-14 76t-55 14zM582 180q106 0 233 68v229h-287q-156 1 -184 -27t-27 -130t19 -121q18 -18 88 -19h158zM686 1249h-168q-96 0 -143 47t-47 158t47 158t143 47h168q96 0 143 -47t47 -158
t-46 -158q-48 -47 -144 -47zM748 1106q156 0 215 -59q39 -39 51 -99t12 -203v-745h-211v135q-100 -85 -148 -111t-122 -26h-172q-141 0 -203 62t-62 246t68 251q43 43 114 61t249 18t276 -30v123q0 154 -21 175t-100 22h-217q-70 0 -88 -18t-24 -138h-213q2 121 16 184
q18 59 49 90q61 61 184 62h347z" />
    <glyph glyph-name="ae" unicode="&#xe6;" horiz-adv-x="1855" 
d="M1524 649q0 219 -31 250q-20 20 -94 21h-254q-73 0 -97 -24t-28 -247h504zM582 180q68 0 114 17q43 10 131 59q-12 84 -12 223h-287q-156 1 -184 -27t-27 -132t19 -121q18 -18 88 -19h158zM1423 1106q158 0 216 -58q59 -58 77 -154q18 -95 19 -331v-59q0 -25 -25 -25
h-690q4 -246 28 -269t97 -24h287q53 0 73 20t23 138h207q-3 -131 -19 -189q-16 -59 -64 -107t-173 -48h-353q-156 0 -219 63q-43 43 -61 99q-125 -102 -178 -137q-53 -27 -123 -27h-172q-141 0 -203 62t-62 246q0 186 68 253q43 43 114 61t249 19q178 0 276 -31v121
q0 154 -21 175t-100 22h-217q-70 0 -88 -18t-24 -138h-213q2 121 16 184q18 59 49 90q61 61 184 62h304q156 0 215 -59q4 -4 6 -9l4 -4q71 71 227 72h266z" />
    <glyph glyph-name="oslash" unicode="&#xf8;" horiz-adv-x="1212" 
d="M469 915q-74 0 -92 -18q-17 -19 -25 -79t-8 -263t10 -289l363 649h-248zM741 190q75 0 93 18t25 82t7 264t-10 286l-364 -650h249zM442 0q-45 0 -55 2l-57 -104h-201l94 163v2q-55 55 -73 151t-19 339q1 242 19 338t77 155t215 60h355q12 -2 26 -2l58 104h200l-96 -166h2
q55 -55 73 -151t19 -338q0 -242 -18 -338q-17 -95 -77 -155t-216 -60h-326z" />
  </font>
</defs>
</svg>
